<svg
        width='48'
        height='48'
        viewBox='0 0 209 97'
        xmlns='http://www.w3.org/2000/svg'
      >
        <defs>
          <style>
    .text {
        fill: #363636;
      }
    @media (prefers-color-scheme: dark) {

      .text {
        fill: #f1f1f1;
      }
    }
          </style>
        </defs>
        <path
        class="text"
        d="M35.541 96.28C28.629 96.28 22.5277 94.7867 17.237 91.8C11.9463 88.728 7.80767 84.5893 4.821 79.384C1.83433 74.0933 0.341001 68.0773 0.341001 61.336C0.341001 54.5947 1.83433 48.6213 4.821 43.416C7.893 38.1253 12.0743 33.9867 17.365 31C22.741 27.928 28.8423 26.392 35.669 26.392C39.6797 26.392 43.4343 26.9467 46.933 28.056C50.517 29.1653 53.6743 30.6587 56.405 32.536C59.221 34.328 61.397 36.3333 62.933 38.552C64.469 40.6853 65.237 42.8187 65.237 44.952L61.397 45.208V0.279999H74.581V95H61.397V77.976L63.957 78.36C63.957 80.408 63.1463 82.456 61.525 84.504C59.989 86.552 57.8983 88.472 55.253 90.264C52.6077 92.056 49.5783 93.5067 46.165 94.616C42.7517 95.7253 39.2103 96.28 35.541 96.28ZM37.845 84.632C42.5383 84.632 46.677 83.608 50.261 81.56C53.9303 79.512 56.789 76.7387 58.837 73.24C60.885 69.7413 61.909 65.7733 61.909 61.336C61.909 56.8987 60.885 52.9307 58.837 49.432C56.789 45.9333 53.9303 43.2027 50.261 41.24C46.677 39.192 42.5383 38.168 37.845 38.168C33.1517 38.168 28.9703 39.192 25.301 41.24C21.717 43.2027 18.901 45.9333 16.853 49.432C14.805 52.9307 13.781 56.8987 13.781 61.336C13.781 65.7733 14.805 69.7413 16.853 73.24C18.901 76.7387 21.717 79.512 25.301 81.56C28.9703 83.608 33.1517 84.632 37.845 84.632ZM135.077 96.28C128.165 96.28 121.978 94.744 116.517 91.672C111.141 88.6 106.832 84.4187 103.589 79.128C100.432 73.8373 98.853 67.9067 98.853 61.336C98.853 54.7653 100.432 48.8347 103.589 43.544C106.832 38.2533 111.141 34.072 116.517 31C121.978 27.928 128.165 26.392 135.077 26.392C141.818 26.392 148.005 27.5867 153.637 29.976C159.269 32.3653 163.621 35.608 166.693 39.704L159.397 49.432C157.605 47.384 155.386 45.5067 152.741 43.8C150.181 42.0933 147.408 40.7707 144.421 39.832C141.52 38.808 138.661 38.296 135.845 38.296C131.237 38.296 127.098 39.32 123.429 41.368C119.845 43.3307 117.029 46.0613 114.981 49.56C112.933 53.0587 111.909 56.984 111.909 61.336C111.909 65.688 112.976 69.6133 115.109 73.112C117.328 76.5253 120.229 79.256 123.813 81.304C127.482 83.352 131.536 84.376 135.973 84.376C139.216 84.376 142.202 83.9493 144.933 83.096C147.749 82.2427 150.352 81.0907 152.741 79.64C155.216 78.104 157.434 76.3973 159.397 74.52L166.693 83.992C163.109 87.4053 158.544 90.3067 152.997 92.696C147.536 95.0853 141.562 96.28 135.077 96.28Z"
      />
      <path
        d="M198.034 96.408C194.535 96.408 191.89 95.5547 190.098 93.848C188.306 92.1413 187.41 89.7947 187.41 86.808C187.41 84.1627 188.306 81.9013 190.098 80.024C191.975 78.1467 194.621 77.208 198.034 77.208C201.533 77.208 204.178 78.0613 205.97 79.768C207.762 81.4747 208.658 83.8213 208.658 86.808C208.658 89.4533 207.719 91.7147 205.842 93.592C204.05 95.4693 201.447 96.408 198.034 96.408Z"
        fill="#2483db"
      />
      </svg>